<?xml version="1.0" encoding="UTF-8" standalone="no"?><!DOCTYPE svg PUBLIC "-//W3C//DTD SVG 1.1//EN" "http://www.w3.org/Graphics/SVG/1.1/DTD/svg11.dtd"><svg width="100%" height="100%" viewBox="0 0 225 158" version="1.1" xmlns="http://www.w3.org/2000/svg" xmlns:xlink="http://www.w3.org/1999/xlink" xml:space="preserve" xmlns:serif="http://www.serif.com/" style="fill-rule:evenodd;clip-rule:evenodd;stroke-linejoin:round;stroke-miterlimit:2;"><path id="Car" d="M198.953,49.968c-1.922,-1.995 -2.924,-4.913 -4.12,-7.427c-3.308,-6.966 -6.611,-13.931 -9.918,-20.896c-3.277,-6.903 -6.099,-12.996 -13.42,-16.072c-7.618,-3.202 -16.708,-3.223 -24.795,-3.926c-23.911,-2.09 -48,-2.3 -71.891,-0c-16.783,1.616 -28.368,3.217 -35.612,20.412c-2.066,4.472 -4.136,8.939 -6.202,13.411c-1.38,2.987 -2.766,5.984 -4.146,8.971c-3.425,7.401 -6.62,7.432 -13.348,10.387c-2.981,1.307 -5.711,3.202 -8.006,5.559c-4.775,4.887 -7.495,16.87 -7.495,23.788l0,31.493c0,14.497 42.645,17.134 56.76,17.134l112.473,0c14.115,0 55.712,-2.637 55.712,-17.134l-0,-31.493c-0,-7.16 -2.92,-19.363 -7.991,-24.287c-4.09,-3.984 -10.547,-4.75 -15.368,-7.805c-0.951,-0.604 -1.84,-1.296 -2.633,-2.115Zm-113.377,-34.532c18.418,-0.619 36.861,-0.902 55.269,0c12.864,0.63 26.17,0 32.619,6.833l4.321,13.989c2.621,8.485 -2.394,15.363 -11.325,15.363l-107.959,0c-8.876,0 -13.981,-6.782 -11.35,-15.315c0,0 4.286,-13.911 4.34,-14.037c8.027,-6.833 20.032,-6.365 34.085,-6.833Zm-48.08,89.54c-10.353,0 -18.745,-8.225 -18.745,-18.371c-0,-10.146 8.392,-18.371 18.745,-18.371c10.353,-0 18.746,8.225 18.746,18.371c-0,10.146 -8.393,18.371 -18.746,18.371Zm98.831,0l-47.699,0c-7.904,0 -14.31,-6.724 -14.31,-15.563c-0,-8.834 6.406,-15.93 14.31,-15.93l47.699,-0c7.905,-0 14.311,7.101 14.311,15.93c-0,8.839 -6.406,15.563 -14.311,15.563Zm51.132,0c-10.353,0 -18.745,-8.225 -18.745,-18.371c-0,-10.146 8.392,-18.371 18.745,-18.371c10.353,-0 18.746,8.225 18.746,18.371c-0,10.146 -8.393,18.371 -18.746,18.371Zm21.423,52.489c8.875,-0 16.068,-6.866 16.068,-15.563l-0,-11.166c-14.027,10.021 -37.855,11.805 -47.228,11.973c2.207,6.115 8.098,14.756 15.093,14.756l16.067,-0Zm-192.809,-0l16.067,-0c6.995,-0 14.281,-9.448 16.487,-15.563c-9.372,-0.168 -33.195,-1.953 -47.227,-11.973l-1.395,11.973c0,8.697 7.193,15.563 16.068,15.563Z" style="fill:#287094;"/></svg>