<?xml version="1.0" encoding="UTF-8" standalone="no"?><!DOCTYPE svg PUBLIC "-//W3C//DTD SVG 1.1//EN" "http://www.w3.org/Graphics/SVG/1.1/DTD/svg11.dtd"><svg width="100%" height="100%" viewBox="0 0 375 300" version="1.1" xmlns="http://www.w3.org/2000/svg" xmlns:xlink="http://www.w3.org/1999/xlink" xml:space="preserve" xmlns:serif="http://www.serif.com/" style="fill-rule:evenodd;clip-rule:evenodd;stroke-linejoin:round;stroke-miterlimit:2;"><path d="M357.715,68.555l-159.434,-66.387c-6.918,-2.87 -14.702,-2.87 -21.621,-0l-159.375,66.387c-10.43,4.394 -17.285,14.59 -17.285,25.957l-0,200.801c-0,2.578 2.109,4.687 4.687,4.687l46.875,0c2.579,0 4.688,-2.109 4.688,-4.688l-0,-145.312c-0,-10.313 8.555,-18.75 19.102,-18.75l224.296,0c10.547,0 19.102,8.438 19.102,18.75l0,145.313c0,2.578 2.109,4.687 4.688,4.687l46.875,0c2.578,0 4.687,-2.109 4.687,-4.688l0,-200.8c0,-11.367 -6.855,-21.563 -17.285,-25.957Z" style="fill:#287094;fill-rule:nonzero;"/></svg>